<svg id="Layer_1" data-name="Layer 1" xmlns="http://www.w3.org/2000/svg" viewBox="0 0 514.21 605.3">
  <g id="beer-keg">
    <path id="Path_39" data-name="Path 39" d="M336.74,51.69H177.46a17.62,17.62,0,0,0-17.59,17.62v21a38.64,38.64,0,0,0,38.61,38.58H315.72a38.64,38.64,0,0,0,38.61-38.58v-21A17.62,17.62,0,0,0,336.74,51.69ZM331,90.31a15.28,15.28,0,0,1-15.26,15.26H198.49a15.29,15.29,0,0,1-15.27-15.26V75.06H331Z" fill="#e3edfd"/>
    <path id="Path_40" data-name="Path 40" d="M506.2,380.74A35.9,35.9,0,0,0,482,346.86V298.09a35.83,35.83,0,0,0,0-67.77V38.62A34.65,34.65,0,0,0,447.38,4H66.84A34.66,34.66,0,0,0,32.2,38.62V230.31a35.83,35.83,0,0,0,0,67.77v48.77a35.83,35.83,0,0,0,0,67.77v48.77a35.85,35.85,0,0,0,0,67.8v35.53A34.65,34.65,0,0,0,66.84,601.3H447.38A34.65,34.65,0,0,0,482,566.69V531.2a35.85,35.85,0,0,0,0-67.8V414.63A35.9,35.9,0,0,0,506.2,380.74ZM55.54,38.62A11.3,11.3,0,0,1,66.82,27.29H447.38a11.29,11.29,0,0,1,11.29,11.28V160.16H55.54Zm0,144.87H458.67v44.87H55.54ZM31.3,264.21A12.53,12.53,0,0,1,43.83,251.7H470.34a12.51,12.51,0,1,1,0,25H43.87A12.53,12.53,0,0,1,31.3,264.24ZM458.61,566.75A11.3,11.3,0,0,1,447.32,578H66.84a11.31,11.31,0,0,1-11.3-11.28V533.17H458.67v33.58Zm24.2-69.46a12.55,12.55,0,0,1-12.53,12.54H43.87a12.53,12.53,0,0,1,0-25H470.34a12.52,12.52,0,0,1,12.52,12.49ZM55.49,461.46V416.58H458.67v44.86Zm414.81-68.2H43.87a12.51,12.51,0,0,1,0-25H204.7a11.65,11.65,0,1,0,0-23.29H55.54V300H458.67v44.87H309.58a11.64,11.64,0,1,0,0,23.28H470.37a12.51,12.51,0,0,1,0,25Z" fill="#e3edfd"/>
    <path id="Path_41" data-name="Path 41" d="M257.12,344.91a11.64,11.64,0,0,0,0,23.28h0a11.64,11.64,0,1,0,0-23.28Z" fill="#e3edfd"/>
  </g>
</svg>
