<svg id="Layer_1" data-name="Layer 1" xmlns="http://www.w3.org/2000/svg" viewBox="0 0 500.21 605.3">
  <path d="M21.52,476.3h458a0,0,0,0,1,0,0v32.83a88.17,88.17,0,0,1-88.17,88.17H109.69a88.17,88.17,0,0,1-88.17-88.17V476.3a0,0,0,0,1,0,0Z" fill="#CEE0FC"/>
  <rect x="6.52" y="414.45" width="484" height="39.02" rx="17.93" fill="#CEE0FC"/>
  <rect x="21.52" y="267.3" width="458" height="123" fill="#CEE0FC"/>
  <path d="M447.52,7.3h-394a32,32,0,0,0-32,32v141h458V39.3A32,32,0,0,0,447.52,7.3Zm-124,89a17.93,17.93,0,0,1-17.93,17.93H195.45a17.93,17.93,0,0,1-17.93-17.93V93.17a17.93,17.93,0,0,1,17.93-17.93H305.59a17.93,17.93,0,0,1,17.93,17.93Z" fill="#CEE0FC"/>
  <rect x="6.52" y="204.35" width="484" height="39.02" rx="17.93" fill="#CEE0FC"/>
</svg>
