<svg id="Layer_1" data-name="Layer 1" xmlns="http://www.w3.org/2000/svg" viewBox="0 0 673.24 696.47">
  <path id="food-serving" d="M34.82,371.45H96.53a34.57,34.57,0,0,0,9.28,37.28l95.29,87.34h0a2.5,2.5,0,0,0,.23.23l150.6,130.53h-3.71a11.6,11.6,0,0,0-11.6,11.6h0v46.43a11.6,11.6,0,0,0,11.6,11.6h139.3a11.6,11.6,0,0,0,11.61-11.6h0V638.43a11.61,11.61,0,0,0-11.61-11.61h0V608.4l6.21-6.22a57.59,57.59,0,0,0,17-41V490l42.08-92.57a34.64,34.64,0,0,0,1.13-26h84.48a34.87,34.87,0,0,0,34.82-34.82V313.41a11.61,11.61,0,0,0-11.61-11.61H615.21V290.19C615.06,155.62,506,46.57,371.44,46.42V23.22h11.61a11.61,11.61,0,0,0,0-23.22H290.19a11.61,11.61,0,0,0,0,23.22H301.8V46.43C167.23,46.58,58.17,155.63,58,290.2v11.6H11.61A11.61,11.61,0,0,0,0,313.41H0v23.22A34.87,34.87,0,0,0,34.82,371.45Zm83.69,7.41a11.36,11.36,0,0,1,10.82-7.4H136a11.62,11.62,0,0,1,10.57,6.8l8.73,19.2v0l19.56,43-53.32-48.89A11.36,11.36,0,0,1,118.51,378.86Zm357.41,294.4H359.84V650H475.92Zm54.95-296.48a11.43,11.43,0,0,1,.81,11.09l-43.12,94.87a11.52,11.52,0,0,0-1,4.8v73.63a34.61,34.61,0,0,1-10.2,24.62l-9.62,9.62a11.64,11.64,0,0,0-3.4,8.21v23.21H387.38L218.46,480.41l-42.08-92.55A11.6,11.6,0,0,1,187,371.45h7.64A11.53,11.53,0,0,1,205,377.86l40,80a11.55,11.55,0,0,0,6.07,5.59l116.08,46.43a11.5,11.5,0,0,0,7.12.48l46.43-11.6a11.6,11.6,0,0,0,7.37-5.71L491.12,377.5a11.6,11.6,0,0,1,10.19-6.05h19.81a11.41,11.41,0,0,1,9.75,5.32Zm-303.15-5.32H468L410.12,477.51,372.27,487l-108.49-43.4ZM325,23.22h23.21V46.43H325ZM81.25,290.2c.13-121.75,98.8-220.42,220.55-220.55h69.64c121.75.14,220.41,98.8,220.55,220.54V301.8H81.26ZM23.22,325H650v11.61a11.62,11.62,0,0,1-11.61,11.6H34.82a11.62,11.62,0,0,1-11.61-11.6Z" fill="#383469"/>
</svg>
